#!OML:ASF I:\Actors\actors\Patient Classification 2\Patient 1\Session 1\actor1.ASF
:FULLY-SPECIFIED
:DEGREES
384
root -1.1199 17.862 5.97578 5.81614 -60.023 -10.9341
lowerback 9.58907 -8.20874 5.19135
upperback -3.07079 -9.99469 5.52086
thorax -8.50591 -5.01043 4.71551
lowerneck -18.3446 13.471 18.205
upperneck 16.6764 16.394 -12.5223
head 10.9837 7.47186 -4.65199
rclavicle -7.12643e-014 2.70347e-014
rhumerus 0.642202 7.00409 9.4599
rradius 148.058
rwrist -90.5416
rhand 1.67033 -60.0418
rfingers 7.12502
rthumb 27.1893 -88.1028
lclavicle -7.12643e-014 2.70347e-014
lhumerus -5.54361 63.6695 42.9509
lradius 39.028
lwrist 27.1802
lhand -13.3704 -27.9685
lfingers 7.12502
lthumb 12.7361 1.6231
rfemur 11.5236 15.0637 22.2251
rtibia -19.9119
rfoot 21.1722 4.91921
rtoes 27.2577
lfemur 25.5231 12.039 -14.5297
ltibia -7.34328
lfoot -27.2923 34.2677
ltoes 9.94291
385
root -1.12766 17.8627 5.98227 5.78729 -59.8451 -10.7979
lowerback 9.47113 -8.264 5.19885
upperback -3.13341 -10.0739 5.54461
thorax -8.50149 -5.05007 4.73796
lowerneck -18.4195 13.4697 18.143
upperneck 16.6726 16.3848 -12.478
head 10.9837 7.46508 -4.62539
rclavicle -3.47873e-014 6.36111e-015
rhumerus -0.179725 6.72524 9.63263
rradius 148.401
rwrist -90.7902
rhand 1.62396 -60.0778
rfingers 7.12502
rthumb 27.1449 -88.1457
lclavicle -3.47873e-014 6.36111e-015
lhumerus -6.24513 63.7047 42.3276
lradius 39.0452
lwrist 27.1484
lhand -13.2932 -28.0147
lfingers 7.12502
lthumb 12.8106 1.57225
rfemur 11.515 15.0935 22.1566
rtibia -19.9813
rfoot 21.0801 4.81273
rtoes 27.4426
lfemur 25.2312 11.8856 -14.6058
ltibia -6.92761
lfoot -27.6485 34.1055
ltoes 10.0908
386
root -1.13529 17.8639 5.98865 5.96466 -59.6624 -10.8874
lowerback 9.36992 -8.33862 5.27972
upperback -3.20509 -10.1659 5.62399
thorax -8.5193 -5.09857 4.78759
lowerneck -18.4137 13.4767 18.06
upperneck 16.6495 16.4028 -12.4195
head 10.9632 7.47455 -4.58836
rclavicle -9.02482e-014 3.97569e-014
rhumerus -0.912103 6.52972 9.78255
rradius 148.663
rwrist -90.7681
rhand 1.86794 -60.0447
rfingers 7.12502
rthumb 27.3783 -88.0759
lclavicle -9.02482e-014 3.97569e-014
lhumerus -7.08137 63.7234 41.5762
lradius 39.0464
lwrist 27.1506
lhand -13.2522 -28.1271
lfingers 7.12502
lthumb 12.8501 1.45738
rfemur 11.4753 15.011 22.2067
rtibia -20.0321
rfoot 21.1285 4.75819
rtoes 27.7172
lfemur 24.9767 11.7304 -14.5575
ltibia -6.61858
lfoot -27.9023 34.014
ltoes 10.0557
387
root -1.14296 17.8644 5.99423 5.98311 -59.4991 -10.8124
lowerback 9.28717 -8.39789 5.24973
upperback -3.26336 -10.2516 5.67713
thorax -8.51771 -5.13898 4.86651
lowerneck -18.4207 13.4764 17.983
upperneck 16.6329 16.4056 -12.3562
head 10.945 7.47749 -4.55318
rclavicle 7.43455e-014 -2.8625e-014
rhumerus -1.70367 6.3444 9.89065
rradius 148.857
rwrist -90.5459
rhand 2.6274 -59.9362
rfingers 7.12502
rthumb 28.1045 -87.8505
lclavicle 7.43455e-014 -2.8625e-014
lhumerus -7.73145 63.7618 40.964
lradius 38.9977
lwrist 27.2055
lhand -13.216 -28.1026
lfingers 7.12502
lthumb 12.885 1.47961
rfemur 11.464 15.0881 22.1734
rtibia -20.0931
rfoot 21.0211 4.63588
rtoes 27.9287
lfemur 24.7482 11.5887 -14.5922
ltibia -6.32711
lfoot -28.1509 33.8768
ltoes 10.22
388
root -1.14977 17.8655 5.99895 5.89067 -59.3548 -10.6183
lowerback 9.06069 -8.21696 5.39848
upperback -3.06837 -10.0335 5.3117
thorax -8.27446 -5.04849 4.30368
lowerneck -19.3268 13.4501 18.5639
upperneck 16.9126 16.0287 -12.2643
head 11.1911 7.3128 -4.64494
rclavicle 9.26337e-014 -9.54166e-015
rhumerus -3.6492 5.97599 9.65368
rradius 149.132
rwrist -90.5622
rhand 3.04681 -59.8444
rfingers 7.12502
rthumb 28.5053 -87.6921
lclavicle 9.26337e-014 -9.54166e-015
lhumerus -5.58475 63.6538 42.5521
lradius 38.7257
lwrist 26.9813
lhand -13.159 -28.0214
lfingers 7.12502
lthumb 12.9399 1.55737
rfemur 11.4645 15.3006 22.077
rtibia -20.1407
rfoot 20.7202 4.49807
rtoes 27.7944
lfemur 24.5638 11.4612 -14.6926
ltibia -6.11058
lfoot -28.3431 33.7556
ltoes 10.4206
389
root -1.15673 17.8661 6.00359 5.93586 -59.2749 -10.6474
lowerback 9.02776 -8.30238 5.32384
upperback -3.14341 -10.153 5.41109
thorax -8.30319 -5.10227 4.47021
lowerneck -19.0015 13.4401 18.5109
upperneck 16.8056 16.0808 -12.2574
head 11.0964 7.34848 -4.63717
rclavicle 8.01102e-014 3.65764e-014
rhumerus -4.18368 5.78251 9.75888
rradius 149.35
rwrist -90.8402
rhand 2.87365 -59.905
rfingers 7.12502
rthumb 28.3398 -87.7803
lclavicle 8.01102e-014 3.65764e-014
lhumerus -6.75161 63.8164 41.5363
lradius 38.8189
lwrist 27.0374
lhand -13.1251 -27.8777
lfingers 7.12502
lthumb 12.9726 1.69901
rfemur 11.5262 15.4448 22.1134
rtibia -20.2051
rfoot 20.5225 4.47388
rtoes 27.3653
lfemur 24.4327 11.4011 -14.6677
ltibia -5.82971
lfoot -28.5799 33.6647
ltoes 10.3212
